<mxfile host="app.diagrams.net" modified="2023-08-29T18:13:12.122Z" agent="Mozilla/5.0 (Macintosh; Intel Mac OS X 10_15_7) AppleWebKit/605.1.15 (KHTML, like Gecko) Version/16.5.1 Safari/605.1.15" etag="sgkyPowuoLt7Pt-IqD6c" version="21.6.9">
  <diagram id="vc8r_1XYBC7EFZj3Y8ex" name="Page-1">
    <mxGraphModel dx="1655" dy="898" grid="1" gridSize="10" guides="1" tooltips="1" connect="1" arrows="1" fold="1" page="1" pageScale="1" pageWidth="1019" pageHeight="1320" math="0" shadow="0">
      <root>
        <mxCell id="0" />
        <mxCell id="1" parent="0" />
        <mxCell id="69H-5tDAyVResuFcrImD-39" value="«component»&lt;br&gt;&lt;b&gt;:OnlineStore&lt;/b&gt;" style="html=1;dropTarget=0;whiteSpace=wrap;fontSize=16;labelPosition=left;verticalLabelPosition=top;align=right;verticalAlign=bottom;spacingLeft=0;spacingRight=-120;spacingTop=0;spacingBottom=-50;" vertex="1" parent="1">
          <mxGeometry x="110" y="70" width="450" height="280" as="geometry" />
        </mxCell>
        <mxCell id="69H-5tDAyVResuFcrImD-40" value="" style="shape=module;jettyWidth=8;jettyHeight=4;fontSize=16;" vertex="1" parent="69H-5tDAyVResuFcrImD-39">
          <mxGeometry x="1" width="20" height="20" relative="1" as="geometry">
            <mxPoint x="-27" y="7" as="offset" />
          </mxGeometry>
        </mxCell>
        <mxCell id="s3TwL0lOHZJc88dg1orS-14" style="edgeStyle=orthogonalEdgeStyle;rounded=0;orthogonalLoop=1;jettySize=auto;html=1;labelBackgroundColor=none;endArrow=none;endFill=0;" parent="1" source="s3TwL0lOHZJc88dg1orS-42" target="s3TwL0lOHZJc88dg1orS-6" edge="1">
          <mxGeometry relative="1" as="geometry">
            <Array as="points">
              <mxPoint x="154" y="143" />
            </Array>
          </mxGeometry>
        </mxCell>
        <mxCell id="SlhrcKaOC55NuVIMiiT8-1" value="&amp;lt;&amp;lt;delegate&amp;gt;&amp;gt;" style="edgeLabel;html=1;align=center;verticalAlign=bottom;resizable=0;points=[];fontSize=8;labelPosition=center;verticalLabelPosition=top;" vertex="1" connectable="0" parent="s3TwL0lOHZJc88dg1orS-14">
          <mxGeometry x="-0.0526" y="1" relative="1" as="geometry">
            <mxPoint y="-5" as="offset" />
          </mxGeometry>
        </mxCell>
        <mxCell id="69H-5tDAyVResuFcrImD-14" value="«component»&lt;br style=&quot;font-size: 12px;&quot;&gt;&lt;b style=&quot;font-size: 12px;&quot;&gt;:Account&lt;/b&gt;" style="html=1;dropTarget=0;whiteSpace=wrap;fontSize=12;" vertex="1" parent="1">
          <mxGeometry x="685" y="190" width="140" height="60" as="geometry" />
        </mxCell>
        <mxCell id="69H-5tDAyVResuFcrImD-15" value="" style="shape=module;jettyWidth=8;jettyHeight=4;fontSize=16;" vertex="1" parent="69H-5tDAyVResuFcrImD-14">
          <mxGeometry x="1" width="20" height="20" relative="1" as="geometry">
            <mxPoint x="-27" y="7" as="offset" />
          </mxGeometry>
        </mxCell>
        <mxCell id="s3TwL0lOHZJc88dg1orS-18" value="" style="html=1;rounded=0;" parent="1" vertex="1">
          <mxGeometry x="670" y="217.5" width="15" height="15" as="geometry" />
        </mxCell>
        <mxCell id="s3TwL0lOHZJc88dg1orS-19" value="" style="endArrow=none;html=1;rounded=0;align=center;verticalAlign=top;endFill=0;labelBackgroundColor=none;endSize=2;fontSize=9;" parent="1" source="s3TwL0lOHZJc88dg1orS-18" target="69H-5tDAyVResuFcrImD-37" edge="1">
          <mxGeometry relative="1" as="geometry">
            <mxPoint x="630" y="110" as="targetPoint" />
          </mxGeometry>
        </mxCell>
        <mxCell id="s3TwL0lOHZJc88dg1orS-36" value="" style="html=1;rounded=0;" parent="1" vertex="1">
          <mxGeometry x="329" y="151.5" width="15" height="15" as="geometry" />
        </mxCell>
        <mxCell id="s3TwL0lOHZJc88dg1orS-39" value="" style="html=1;rounded=0;" parent="1" vertex="1">
          <mxGeometry x="175" y="152.5" width="15" height="15" as="geometry" />
        </mxCell>
        <mxCell id="s3TwL0lOHZJc88dg1orS-40" value="" style="endArrow=none;html=1;rounded=0;align=center;verticalAlign=top;endFill=0;labelBackgroundColor=none;endSize=2;" parent="1" source="s3TwL0lOHZJc88dg1orS-39" target="s3TwL0lOHZJc88dg1orS-42" edge="1">
          <mxGeometry relative="1" as="geometry" />
        </mxCell>
        <mxCell id="s3TwL0lOHZJc88dg1orS-42" value="OrderSubmission" style="ellipse;html=1;fontSize=9;align=center;fillColor=none;points=[];aspect=fixed;resizable=0;verticalAlign=top;labelPosition=center;verticalLabelPosition=bottom;flipH=1;strokeColor=#000000;" parent="1" vertex="1">
          <mxGeometry x="150" y="156" width="8" height="8" as="geometry" />
        </mxCell>
        <mxCell id="s3TwL0lOHZJc88dg1orS-43" value="" style="html=1;rounded=0;aspect=fixed;" parent="1" vertex="1">
          <mxGeometry x="252.5" y="190" width="15" height="15" as="geometry" />
        </mxCell>
        <mxCell id="s3TwL0lOHZJc88dg1orS-22" value="" style="html=1;rounded=0;" parent="1" vertex="1">
          <mxGeometry x="380" y="151.5" width="15" height="15" as="geometry" />
        </mxCell>
        <mxCell id="s3TwL0lOHZJc88dg1orS-30" value="" style="html=1;rounded=0;aspect=fixed;" parent="1" vertex="1">
          <mxGeometry x="460" y="188" width="15" height="15" as="geometry" />
        </mxCell>
        <mxCell id="s3TwL0lOHZJc88dg1orS-47" value="" style="html=1;rounded=0;" parent="1" vertex="1">
          <mxGeometry x="252.5" y="255" width="15" height="15" as="geometry" />
        </mxCell>
        <mxCell id="69H-5tDAyVResuFcrImD-25" value="" style="rounded=0;orthogonalLoop=1;jettySize=auto;html=1;endArrow=halfCircle;endFill=0;endSize=6;strokeWidth=1;sketch=0;fontSize=12;curved=1;exitX=1;exitY=0.5;exitDx=0;exitDy=0;" edge="1" target="69H-5tDAyVResuFcrImD-27" parent="1" source="s3TwL0lOHZJc88dg1orS-36">
          <mxGeometry relative="1" as="geometry">
            <mxPoint x="510" y="255" as="sourcePoint" />
          </mxGeometry>
        </mxCell>
        <mxCell id="69H-5tDAyVResuFcrImD-26" value="" style="rounded=0;orthogonalLoop=1;jettySize=auto;html=1;endArrow=oval;endFill=0;sketch=0;sourcePerimeterSpacing=0;targetPerimeterSpacing=0;endSize=10;fontSize=12;curved=1;exitX=0;exitY=0.5;exitDx=0;exitDy=0;" edge="1" target="69H-5tDAyVResuFcrImD-27" parent="1" source="s3TwL0lOHZJc88dg1orS-22">
          <mxGeometry relative="1" as="geometry">
            <mxPoint x="470" y="255" as="sourcePoint" />
          </mxGeometry>
        </mxCell>
        <mxCell id="69H-5tDAyVResuFcrImD-28" value="" style="rounded=0;orthogonalLoop=1;jettySize=auto;html=1;endArrow=halfCircle;endFill=0;endSize=6;strokeWidth=1;sketch=0;fontSize=12;curved=1;exitX=0.5;exitY=1;exitDx=0;exitDy=0;" edge="1" target="69H-5tDAyVResuFcrImD-30" parent="1" source="s3TwL0lOHZJc88dg1orS-43">
          <mxGeometry relative="1" as="geometry">
            <mxPoint x="510" y="255" as="sourcePoint" />
          </mxGeometry>
        </mxCell>
        <mxCell id="69H-5tDAyVResuFcrImD-29" value="" style="rounded=0;orthogonalLoop=1;jettySize=auto;html=1;endArrow=oval;endFill=0;sketch=0;sourcePerimeterSpacing=0;targetPerimeterSpacing=0;endSize=10;fontSize=12;curved=1;exitX=0.5;exitY=0;exitDx=0;exitDy=0;" edge="1" target="69H-5tDAyVResuFcrImD-30" parent="1" source="s3TwL0lOHZJc88dg1orS-47">
          <mxGeometry relative="1" as="geometry">
            <mxPoint x="470" y="255" as="sourcePoint" />
          </mxGeometry>
        </mxCell>
        <mxCell id="69H-5tDAyVResuFcrImD-31" value="" style="rounded=0;orthogonalLoop=1;jettySize=auto;html=1;endArrow=halfCircle;endFill=0;endSize=6;strokeWidth=1;sketch=0;fontSize=12;curved=1;exitX=0.5;exitY=1;exitDx=0;exitDy=0;" edge="1" target="69H-5tDAyVResuFcrImD-32" parent="1" source="s3TwL0lOHZJc88dg1orS-30">
          <mxGeometry relative="1" as="geometry">
            <mxPoint x="505" y="255" as="sourcePoint" />
          </mxGeometry>
        </mxCell>
        <mxCell id="s3TwL0lOHZJc88dg1orS-3" value="" style="html=1;rounded=0;aspect=fixed;" parent="1" vertex="1">
          <mxGeometry x="560" y="233" width="15" height="15" as="geometry" />
        </mxCell>
        <mxCell id="s3TwL0lOHZJc88dg1orS-6" value="" style="html=1;rounded=0;" parent="1" vertex="1">
          <mxGeometry x="95" y="135.5" width="15" height="15" as="geometry" />
        </mxCell>
        <mxCell id="s3TwL0lOHZJc88dg1orS-7" value="" style="endArrow=none;html=1;rounded=0;align=center;verticalAlign=top;endFill=0;labelBackgroundColor=none;endSize=2;" parent="1" source="s3TwL0lOHZJc88dg1orS-6" target="s3TwL0lOHZJc88dg1orS-9" edge="1">
          <mxGeometry relative="1" as="geometry" />
        </mxCell>
        <mxCell id="s3TwL0lOHZJc88dg1orS-9" value="OrderSubmission" style="ellipse;html=1;fontSize=9;align=center;fillColor=none;points=[];aspect=fixed;resizable=0;verticalAlign=top;labelPosition=center;verticalLabelPosition=bottom;flipH=1;strokeColor=#000000;" parent="1" vertex="1">
          <mxGeometry x="39" y="139" width="8" height="8" as="geometry" />
        </mxCell>
        <mxCell id="69H-5tDAyVResuFcrImD-20" value="«component»&lt;br style=&quot;font-size: 12px;&quot;&gt;&lt;b style=&quot;font-size: 12px;&quot;&gt;:Product&lt;/b&gt;" style="html=1;dropTarget=0;whiteSpace=wrap;fontSize=12;" vertex="1" parent="1">
          <mxGeometry x="189" y="270" width="140" height="60" as="geometry" />
        </mxCell>
        <mxCell id="69H-5tDAyVResuFcrImD-21" value="" style="shape=module;jettyWidth=8;jettyHeight=4;fontSize=16;" vertex="1" parent="69H-5tDAyVResuFcrImD-20">
          <mxGeometry x="1" width="20" height="20" relative="1" as="geometry">
            <mxPoint x="-27" y="7" as="offset" />
          </mxGeometry>
        </mxCell>
        <mxCell id="69H-5tDAyVResuFcrImD-10" value="«component»&lt;br style=&quot;font-size: 12px;&quot;&gt;&lt;b style=&quot;font-size: 12px;&quot;&gt;:Customer&lt;/b&gt;" style="html=1;dropTarget=0;whiteSpace=wrap;fontSize=12;" vertex="1" parent="1">
          <mxGeometry x="395" y="128" width="140" height="60" as="geometry" />
        </mxCell>
        <mxCell id="69H-5tDAyVResuFcrImD-11" value="" style="shape=module;jettyWidth=8;jettyHeight=4;fontSize=16;" vertex="1" parent="69H-5tDAyVResuFcrImD-10">
          <mxGeometry x="1" width="20" height="20" relative="1" as="geometry">
            <mxPoint x="-27" y="7" as="offset" />
          </mxGeometry>
        </mxCell>
        <mxCell id="69H-5tDAyVResuFcrImD-22" value="«component»&lt;br style=&quot;font-size: 12px;&quot;&gt;&lt;b style=&quot;font-size: 12px;&quot;&gt;:Order&lt;/b&gt;" style="html=1;dropTarget=0;whiteSpace=wrap;fontSize=12;" vertex="1" parent="1">
          <mxGeometry x="189" y="130" width="140" height="60" as="geometry" />
        </mxCell>
        <mxCell id="69H-5tDAyVResuFcrImD-23" value="" style="shape=module;jettyWidth=8;jettyHeight=4;fontSize=16;" vertex="1" parent="69H-5tDAyVResuFcrImD-22">
          <mxGeometry x="1" width="20" height="20" relative="1" as="geometry">
            <mxPoint x="-27" y="7" as="offset" />
          </mxGeometry>
        </mxCell>
        <mxCell id="69H-5tDAyVResuFcrImD-27" value="Person" style="ellipse;whiteSpace=wrap;html=1;align=center;aspect=fixed;fillColor=none;strokeColor=none;resizable=0;perimeter=centerPerimeter;rotatable=0;allowArrows=0;points=[];outlineConnect=1;fontSize=9;labelPosition=center;verticalLabelPosition=top;verticalAlign=bottom;" vertex="1" parent="1">
          <mxGeometry x="360" y="154" width="10" height="10" as="geometry" />
        </mxCell>
        <mxCell id="69H-5tDAyVResuFcrImD-30" value="OrderableProduct" style="ellipse;whiteSpace=wrap;html=1;align=left;aspect=fixed;fillColor=none;strokeColor=none;resizable=0;perimeter=centerPerimeter;rotatable=0;allowArrows=0;points=[];outlineConnect=1;fontSize=9;labelPosition=right;verticalLabelPosition=middle;verticalAlign=middle;" vertex="1" parent="1">
          <mxGeometry x="255" y="225.5" width="10" height="10" as="geometry" />
        </mxCell>
        <mxCell id="69H-5tDAyVResuFcrImD-32" value="Account" style="ellipse;whiteSpace=wrap;html=1;align=right;aspect=fixed;fillColor=none;strokeColor=none;resizable=0;perimeter=centerPerimeter;rotatable=0;allowArrows=0;points=[];outlineConnect=1;fontSize=9;labelPosition=left;verticalLabelPosition=middle;verticalAlign=middle;" vertex="1" parent="1">
          <mxGeometry x="462.5" y="220" width="10" height="10" as="geometry" />
        </mxCell>
        <mxCell id="s3TwL0lOHZJc88dg1orS-12" value="&lt;span style=&quot;caret-color: rgb(0, 0, 0); color: rgb(0, 0, 0); font-family: Helvetica; font-size: 8px; font-style: normal; font-variant-caps: normal; font-weight: 400; letter-spacing: normal; text-align: center; text-indent: 0px; text-transform: none; word-spacing: 0px; -webkit-text-stroke-width: 0px; background-color: rgb(255, 255, 255); text-decoration: none; float: none; display: inline !important;&quot;&gt;&amp;lt;&amp;lt;delegate&amp;gt;&amp;gt;&lt;/span&gt;" style="edgeStyle=orthogonalEdgeStyle;rounded=0;orthogonalLoop=1;jettySize=auto;html=1;labelBackgroundColor=none;endArrow=none;endFill=0;exitX=0.45;exitY=1;exitDx=0;exitDy=0;exitPerimeter=0;" parent="1" source="69H-5tDAyVResuFcrImD-32" target="s3TwL0lOHZJc88dg1orS-3" edge="1">
          <mxGeometry x="0.0798" y="10" relative="1" as="geometry">
            <mxPoint x="680" y="180" as="targetPoint" />
            <Array as="points">
              <mxPoint x="468" y="240" />
            </Array>
            <mxPoint x="470" y="500" as="sourcePoint" />
            <mxPoint x="1" as="offset" />
          </mxGeometry>
        </mxCell>
        <mxCell id="69H-5tDAyVResuFcrImD-35" value="" style="rounded=0;orthogonalLoop=1;jettySize=auto;html=1;endArrow=halfCircle;endFill=0;endSize=6;strokeWidth=1;sketch=0;fontSize=12;curved=1;exitX=1;exitY=0.5;exitDx=0;exitDy=0;" edge="1" parent="1" source="s3TwL0lOHZJc88dg1orS-3">
          <mxGeometry relative="1" as="geometry">
            <mxPoint x="505" y="255" as="sourcePoint" />
            <mxPoint x="600" y="240" as="targetPoint" />
          </mxGeometry>
        </mxCell>
        <mxCell id="69H-5tDAyVResuFcrImD-36" value="" style="ellipse;whiteSpace=wrap;html=1;align=center;aspect=fixed;fillColor=none;strokeColor=none;resizable=0;perimeter=centerPerimeter;rotatable=0;allowArrows=0;points=[];outlineConnect=1;fontSize=16;" vertex="1" parent="1">
          <mxGeometry x="480" y="250" width="10" height="10" as="geometry" />
        </mxCell>
        <mxCell id="69H-5tDAyVResuFcrImD-38" style="edgeStyle=none;curved=1;rounded=0;orthogonalLoop=1;jettySize=auto;html=1;fontSize=12;startSize=8;endSize=8;endArrow=none;endFill=0;dashed=1;" edge="1" parent="1" target="69H-5tDAyVResuFcrImD-37">
          <mxGeometry relative="1" as="geometry">
            <mxPoint x="600" y="240" as="sourcePoint" />
          </mxGeometry>
        </mxCell>
        <mxCell id="69H-5tDAyVResuFcrImD-37" value="" style="ellipse;html=1;fontSize=11;align=center;fillColor=none;points=[];aspect=fixed;resizable=0;verticalAlign=bottom;labelPosition=center;verticalLabelPosition=top;flipH=1;" vertex="1" parent="1">
          <mxGeometry x="630" y="221" width="8" height="8" as="geometry" />
        </mxCell>
        <mxCell id="69H-5tDAyVResuFcrImD-42" value="" style="ellipse;whiteSpace=wrap;html=1;align=center;aspect=fixed;fillColor=none;strokeColor=none;resizable=0;perimeter=centerPerimeter;rotatable=0;allowArrows=0;points=[];outlineConnect=1;fontSize=16;" vertex="1" parent="1">
          <mxGeometry x="480" y="250" width="10" height="10" as="geometry" />
        </mxCell>
      </root>
    </mxGraphModel>
  </diagram>
</mxfile>
